<svg width="324" height="55" viewBox="0 0 324 55" xmlns="http://www.w3.org/2000/svg"><g fill="none"><path d="M200.46 41.66c-1.692 4.344-5.889 10.529-15.386 10.529-12.075 0-21.867-8.54-21.867-24.001 0-15.241 9.572-22.381 20.836-22.381 10.676 0 13.988 5.742 15.093 10.749.516.441 1.62.368 1.988-.147-.59-4.491-.957-9.13-1.031-10.824-.662.074-1.178-.073-2.062-.294-3.459-.957-9.055-1.767-13.03-1.767-7.657 0-14.503 2.061-19.879 6.259-5.595 4.343-9.276 11.338-9.276 19.51 0 9.498 4.564 16.197 10.455 20.247 5.373 3.608 11.706 4.933 18.332 4.933 4.712 0 10.012-1.104 11.632-1.694.81-.295 1.694-.589 2.577-.736 1.104-1.399 3.018-6.258 3.534-10.086-.295-.518-1.4-.665-1.916-.297zm37.837 9.792c-2.65-.295-2.798-1.105-2.798-6.405v-12.295c0-5.153-2.503-9.497-9.498-9.497-3.755 0-7.288 1.767-9.939 3.828-.22-.147-.294-.736-.294-1.399v-15.46c0-3.239.147-6.921.221-9.129-.147-.295-.441-.443-.736-.443-2.65 1.4-6.111 2.504-7.951 3.092-.368.221-.368 1.252 0 1.473l.735.442c2.21 1.326 2.283 1.767 2.283 6.111v33.278c0 5.3-.073 6.111-2.798 6.405l-1.841.221c-.515.368-.368 1.619.148 1.84 2.356-.147 4.564-.221 7.216-.221 2.576 0 4.712.074 6.92.221.516-.221.662-1.546.148-1.84l-1.547-.221c-2.651-.369-2.798-1.105-2.798-6.405v-12.369c0-2.578.221-2.945 1.547-4.049 1.325-1.105 3.239-1.988 5.742-1.988 4.712 0 6.994 3.166 6.994 7.878v10.528c0 5.3-.073 5.964-2.798 6.405l-1.472.221c-.516.368-.369 1.619.147 1.84 1.987-.147 4.196-.221 6.847-.221 2.577 0 4.712.074 7.362.221.516-.221.663-1.473.148-1.84l-1.988-.222zm18.917 0c-2.65-.369-2.798-1.105-2.798-6.405v-13.252c0-3.018.148-6.552.295-9.129-.073-.295-.369-.442-.737-.442-1.692 1.104-5.89 3.018-7.583 3.608-.368.221-.368 1.03-.074 1.325l.663.442c1.988 1.325 1.988 1.693 1.988 4.565v12.884c0 5.3-.074 6.037-2.799 6.405l-1.546.221c-.515.368-.368 1.619.147 1.84 2.061-.147 4.271-.221 6.921-.221 2.577 0 4.712.074 6.92.221.516-.221.663-1.473.148-1.84l-1.545-.222zm-6.036-39.388c1.988 0 3.829-1.178 3.829-3.755 0-2.061-1.399-3.755-3.608-3.755-2.135 0-3.976 1.473-3.976 3.902 0 1.988 1.473 3.608 3.755 3.608zm37.471 33.719c-1.692 2.503-3.902 4.417-8.172 4.417-7.878 0-11.854-6.847-11.854-12.589 0-7.804 5.007-11.854 10.16-11.854 3.019 0 5.743 1.914 7.362 3.902.295.369.663.516 1.03.516.884 0 1.621-1.399 1.621-2.724 0-1.252-.516-2.43-1.105-2.946-1.987-.883-4.859-1.251-6.552-1.251-12.222 0-17.817 8.467-17.817 16.418 0 4.786 1.693 8.393 4.27 10.896 2.576 2.503 6.185 3.755 10.086 3.755 4.27 0 9.791-2.062 12.294-7.509-.071-.663-.733-1.179-1.323-1.031zm19.728-22.528c-8.687 0-15.681 6.625-15.681 15.902 0 9.203 6.626 15.167 15.093 15.167 9.202 0 15.534-6.626 15.534-15.829 0-9.056-6.7-15.24-14.946-15.24zm.147 28.86c-6.478 0-9.498-7.215-9.498-13.915 0-8.099 3.609-12.737 8.468-12.737 6.994 0 9.497 7.951 9.497 14.21-.001 5.669-1.988 12.442-8.467 12.442z" id="Shape" fill="#960000"/><path d="M3.224 14.256c1.176.767 2.564 1.094 4.181 1.094 1.062 0 2.188-.277 2.548-.391.179-.049.376-.115.571-.148.229-.31.67-1.388.784-2.482-.081-.147-.343-.212-.489-.066-.458 1.062-1.356 2.434-3.414 2.434-2.107 0-4.279-1.699-4.279-5.178 0-3.348 2.091-4.818 4.165-4.818 2.155 0 2.891 1.355 3.169 2.385.115.114.408.098.523-.033-.163-1.209-.197-2.172-.229-2.548l-.457-.098c-.768-.196-1.894-.36-2.825-.36-1.65 0-3.3.473-4.508 1.388-1.21.931-2.059 2.417-2.059 4.329-.001 2.14.996 3.626 2.319 4.492zm14.579.408l-.473-.082c-.605-.082-.67-.131-.343-1.094l.67-1.96c.146-.441.131-.441.555-.441h2.172c.458 0 .506 0 .67.441l.767 2.221c.213.703.163.8-.424.866l-.359.049c-.098.098-.082.392.049.473.571-.016 1.29-.049 1.992-.049.85 0 1.455.016 2.125.049.113-.082.113-.359-.017-.473l-.245-.049c-.832-.147-.914-.262-1.29-1.356l-2.352-6.843-.736-2.238c-.065-.082-.146-.13-.277-.13-.033 0-.572.67-1.144.784.05.277-.097.67-.31 1.192l-2.237 5.814c-.343.882-.604 1.569-.801 1.993-.245.539-.425.685-.898.751l-.49.082c-.114.146-.097.392.017.473.572-.033 1.078-.049 1.616-.049.67.016 1.209.016 1.732.049.129-.064.145-.358.031-.473zm.408-4.786l.686-1.91c.295-.768.426-1.176.49-1.291h.033c.082.115.18.425.457 1.291l.685 1.96c.132.392.066.424-.392.424h-1.699c-.39 0-.439 0-.26-.474zm19.317 2.892c-.082-.132-.344-.18-.507-.099-.751 1.682-1.012 1.764-2.825 1.764-1.306 0-1.568-.131-1.764-.359-.245-.278-.278-.866-.278-1.682v-5.734c0-1.698.148-1.747.915-1.861l.36-.066c.131-.082.115-.407-.033-.473-.718.033-1.454.049-2.172.049-.751 0-1.487-.016-2.303-.049-.146.066-.146.392-.033.473l.457.066c.769.115.915.163.915 1.861v6.076c0 1.698-.146 1.748-.915 1.846l-.489.082c-.148.082-.099.409.032.473.686-.033 1.503-.049 2.336-.049h1.698c1.83 0 3.235.016 3.92.049.196-.44.555-1.682.686-2.367zm8.276 2.368c.131-.065.148-.359.033-.473l-.36-.049c-.767-.099-.915-.147-.915-1.878v-6.078c0-1.731.147-1.78.915-1.877l.36-.05c.115-.114.098-.407-.033-.473-.718.033-1.454.049-2.172.049-.751 0-1.487-.016-2.204-.049-.132.066-.147.36-.034.473l.36.05c.768.098.915.146.915 1.877v6.076c0 1.731-.147 1.78-.915 1.878l-.36.049c-.114.115-.098.409.034.473.717-.033 1.486-.049 2.204-.049.718.002 1.453.018 2.172.051zm8.717-.556c-.767-.066-.914-.115-.914-1.846v-2.286c0-.409.016-.44.392-.44h.964c1.421 0 1.683.032 1.829.718l.13.637c.098.115.409.115.49-.016-.016-.507-.05-1.095-.05-1.699 0-.605.034-1.209.05-1.633-.082-.131-.393-.131-.49-.017l-.13.556c-.146.686-.409.718-1.829.718h-.964c-.376 0-.392-.033-.392-.442v-2.924c0-.914 0-.947.685-.947h.833c.523 0 .932.016 1.372.131.621.163.882.637 1.045 1.584.163.098.457.065.523-.066-.034-.767-.034-1.992-.034-2.352-.343.033-1.258.049-2.302.049h-3.087c-.72 0-1.454-.016-2.025-.049-.132.066-.147.36-.034.473l.213.033c.767.115.914.163.914 1.894v6.076c0 1.731-.147 1.78-.914 1.878l-.36.049c-.115.115-.099.409.033.473.751-.033 1.487-.049 2.204-.049.719 0 1.455.016 2.499.049.131-.065.147-.359.033-.473l-.684-.079zm13.715.768c3.299 0 5.75-2.4 5.75-5.618 0-2.973-1.944-5.684-5.718-5.684-3.43 0-5.846 2.466-5.846 5.799 0 2.906 2.123 5.503 5.814 5.503zm-.179-10.649c2.597 0 3.707 2.858 3.707 5.324 0 3.283-1.503 4.672-3.364 4.672-2.793 0-3.757-3.071-3.757-5.325 0-3.479 1.78-4.671 3.414-4.671zm10.904 9.914l-.36.049c-.146.115-.099.409.033.473.751-.033 1.487-.049 2.204-.049.719 0 1.455.016 2.172.049.132-.065.147-.359.034-.473l-.361-.049c-.767-.099-.914-.147-.914-1.878v-2.09c0-.343.016-.36.506-.36.539 0 .718.066 1.012.555.392.638.85 1.535 1.29 2.222.996 1.519 1.846 2.155 3.414 2.155.572 0 .881-.049 1.078-.098.048-.082.048-.261-.034-.327-.195-.016-.67-.115-1.126-.506-.767-.637-1.584-2.026-2.892-4.23-.065-.099-.098-.229 0-.278.801-.327 1.961-1.078 1.961-2.581 0-1.176-.605-1.943-1.438-2.384-.719-.392-1.828-.555-3.103-.555-1.339 0-2.727.049-3.757.148-.131.081-.131.343-.017.456l.425.05c.768.082.785.277.785 1.845v5.978c.002 1.731-.145 1.78-.912 1.878zm2.809-8.901c0-.751.016-.8.866-.8 1.421 0 2.254 1.127 2.254 2.416 0 1.553-.735 2.336-2.336 2.336-.784 0-.784-.032-.784-.555v-3.397zm22.37-.981c.131-.114.098-.392-.032-.473-.589.033-1.014.049-1.716.049-.637 0-1.242-.016-1.877-.049-.163.049-.18.36-.034.473l.377.05c.408.065.67.162.816.408.294.49.31 1.993.31 3.218v3.185c0 .262 0 .344-.048.393-.163-.099-1.683-1.83-2.37-2.581l-1.632-1.764c-.572-.621-2.352-2.679-2.631-3.381-.391.033-.783.049-1.126.049-.409 0-1.307.017-1.927-.049-.163.049-.179.376-.066.473l.245.05c.229.049.686.179.865.326.556.474.54.736.54 2.009v3.871c0 1.291 0 2.711-.213 3.218-.114.261-.409.327-.718.376l-.361.082c-.13.115-.098.392.034.473.571-.033 1.012-.049 1.698-.049.621 0 1.258.016 1.862.049.163-.049.18-.359.034-.473l-.36-.049c-.409-.066-.687-.163-.833-.408-.278-.49-.294-1.993-.294-3.218v-3.185c0-.866 0-1.045.049-1.045.278.245.8.865 1.863 2.058l3.821 4.361c1.176 1.339 1.649 1.895 1.91 2.238.197.016.425-.049.556-.229-.049-.376-.049-2.385-.049-2.874v-3.904c0-1.29 0-2.711.228-3.218.115-.261.393-.327.703-.376l.376-.084zm4.795 9.882l-.359.049c-.114.115-.097.409.033.473.719-.033 1.486-.049 2.205-.049.717 0 1.453.016 2.172.049.129-.065.146-.359.032-.473l-.359-.049c-.767-.099-.915-.147-.915-1.878v-6.077c0-1.731.148-1.78.915-1.877l.359-.05c.115-.114.098-.407-.032-.473-.72.033-1.455.049-2.172.049-.751 0-1.487-.016-2.205-.049-.13.066-.146.36-.033.473l.359.05c.768.098.915.146.915 1.877v6.076c-.001 1.732-.147 1.781-.915 1.879zm10.972.523c.13-.065.146-.359.033-.473l-.474-.082c-.604-.082-.67-.131-.343-1.094l.67-1.96c.147-.441.132-.441.556-.441h2.172c.456 0 .506 0 .67.441l.767 2.221c.212.703.163.8-.425.866l-.359.049c-.099.098-.082.392.048.473.572-.016 1.291-.049 1.993-.049.849 0 1.454.016 2.124.049.115-.082.115-.359-.017-.473l-.245-.049c-.832-.147-.914-.262-1.29-1.356l-2.352-6.843-.735-2.238c-.066-.082-.148-.13-.277-.13-.034 0-.572.67-1.144.784.049.277-.098.67-.311 1.192l-2.237 5.814c-.343.882-.605 1.569-.8 1.993-.245.539-.425.685-.899.751l-.49.082c-.114.146-.098.392.017.473.572-.033 1.078-.049 1.617-.049.67.016 1.208.016 1.731.049zm.441-5.26l.686-1.91c.294-.768.424-1.176.49-1.291h.032c.082.115.18.425.458 1.291l.686 1.96c.131.392.066.424-.393.424h-1.698c-.392 0-.44 0-.261-.474zm-46.077 20.654c0-1.649-1.176-2.663-2.237-3.218l-1.013-.539c-1.077-.571-1.55-1.306-1.55-1.992 0-.866.538-1.715 1.845-1.715 1.388 0 1.959 1.094 2.204 1.943.148.115.441.098.523-.049 0-.767-.163-1.845-.344-2.205-.767-.146-1.387-.343-2.237-.343-2.385 0-3.593 1.372-3.593 2.989 0 1.471 1.078 2.466 2.303 3.153l.702.392c1.225.687 1.666 1.438 1.666 2.369 0 .996-.703 1.748-1.944 1.748-1.6 0-2.482-1.748-2.776-2.581-.131-.115-.409-.098-.506.065-.016 1.013.195 2.14.49 2.483.327.196 1.176.686 2.678.686 2.368-.001 3.789-1.324 3.789-3.186zm11.968 2.973c.132-.065.147-.359.033-.473l-.588-.066c-.768-.082-.915-.131-.915-1.861v-7.056c0-.686.017-.718.441-.718h.931c1.748 0 2.058.31 2.27 1.584.148.114.424.082.506-.049-.049-.523.082-1.928.245-2.598-.032-.049-.113-.082-.212-.082l-.196.066c-.195.376-.441.425-1.242.425h-6.662c-1.112 0-1.339-.016-1.421-.425-.034-.049-.099-.066-.164-.066-.082 0-.147.017-.18.066-.115.572-.36 1.584-.637 2.466.066.163.409.212.522.114.605-1.323 1.046-1.502 2.549-1.502h.914c.426 0 .442.033.442.718v7.056c0 1.731-.147 1.78-.915 1.846l-.686.082c-.116.082-.099.409.032.473 1.045-.033 1.813-.049 2.532-.049.719 0 1.454.016 2.401.049zm15.039-.523c-.832-.148-.914-.262-1.29-1.356l-2.352-6.843-.735-2.238c-.066-.082-.148-.131-.277-.131-.034 0-.572.67-1.144.784.049.277-.098.67-.311 1.192l-2.237 5.814c-.343.882-.605 1.569-.8 1.993-.245.539-.425.686-.899.751l-.49.082c-.114.146-.098.392.017.473.572-.033 1.078-.049 1.618-.049.67.016 1.208.016 1.731.049.131-.065.147-.359.033-.473l-.474-.082c-.604-.082-.67-.131-.343-1.094l.67-1.96c.148-.441.132-.441.556-.441h2.172c.456 0 .506 0 .67.441l.767 2.221c.212.703.163.8-.425.866l-.359.049c-.099.098-.081.392.048.473.572-.016 1.291-.049 1.993-.049.849 0 1.454.016 2.124.049.114-.082.114-.359-.017-.473l-.246-.048zm-4.77-4.263h-1.698c-.393 0-.44 0-.261-.474l.686-1.91c.294-.768.424-1.176.49-1.291h.032c.082.115.18.424.458 1.291l.686 1.96c.131.392.066.424-.393.424zm17.557-6.533l-.196.066c-.195.376-.44.425-1.242.425h-6.662c-1.112 0-1.339-.016-1.421-.425-.034-.049-.098-.066-.163-.066-.082 0-.147.017-.18.066-.115.572-.36 1.584-.637 2.466.066.163.409.212.522.114.605-1.323 1.046-1.502 2.549-1.502h.914c.426 0 .441.033.441.718v7.056c0 1.731-.147 1.78-.915 1.846l-.686.082c-.116.082-.099.409.032.473 1.045-.033 1.814-.049 2.532-.049s1.454.016 2.401.049c.132-.065.147-.359.033-.473l-.588-.066c-.768-.082-.915-.131-.915-1.861v-7.056c0-.686.017-.718.441-.718h.931c1.748 0 2.058.31 2.27 1.584.147.114.424.082.506-.049-.049-.523.082-1.928.245-2.598-.031-.05-.113-.082-.212-.082zm4.682 10.779l-.605.066c-.113.115-.098.409.034.473.734-.033 1.731-.049 2.449-.049h1.861c1.911 0 3.316.016 4.035.049.228-.441.588-1.682.687-2.368-.099-.163-.377-.213-.523-.099-.571 1.323-.932 1.797-3.005 1.764-1.372 0-1.649-.131-1.846-.359-.245-.278-.278-.866-.278-1.699v-2.074c0-.409.016-.441.393-.441h.783c1.421 0 1.699.033 1.814.719l.114.654c.132.098.441.098.523-.017-.017-.522-.049-1.094-.049-1.715 0-.604.032-1.192.049-1.633-.082-.13-.392-.13-.523-.016l-.114.555c-.114.702-.393.719-1.814.719h-.783c-.377 0-.393-.016-.393-.441v-2.76c0-.931 0-.963.703-.963h1.095c.441 0 .931.033 1.305.146.523.13.769.539 1.03 1.487.131.098.457.065.523-.066-.097-.702-.196-1.992-.261-2.27-.213.033-1.16.049-2.206.049h-3.119c-.718 0-1.487-.016-2.107-.049-.132.066-.148.36-.033.473l.261.033c.768.115.915.164.915 1.894v6.076c0 1.732-.147 1.781-.915 1.862zm-107.258 8.078c-.638 0-1.257-.016-1.814-.049-.163.049-.179.343-.032.457l.327.049c.408.066.67.179.816.424.294.474.31 1.993.31 3.218v2.042c0 2.482-.881 4.1-3.022 4.1-2.27 0-2.956-1.895-2.956-4.148v-3.741c0-1.731.146-1.78.915-1.894l.359-.049c.114-.115.098-.392-.033-.457-.718.033-1.454.049-2.188.049-.719 0-1.454-.016-2.108-.049-.13.066-.146.343-.032.457l.277.049c.767.114.915.163.915 1.894v4.149c0 1.649.343 2.792 1.078 3.495.751.719 1.83 1.045 3.364 1.045 1.128 0 2.351-.31 3.202-1.225.85-.915 1.077-2.287 1.077-3.773v-1.944c0-1.29 0-2.727.229-3.218.115-.261.408-.327.719-.392l.359-.082c.131-.115.097-.375-.033-.457-.603.034-1.043.05-1.729.05zm15.788 0c-.638 0-1.242-.016-1.88-.049-.163.049-.179.36-.032.473l.375.05c.409.065.67.162.817.408.294.49.311 1.993.311 3.218v3.185c0 .262 0 .344-.05.393-.164-.099-1.682-1.83-2.368-2.581l-1.634-1.764c-.571-.621-2.352-2.678-2.629-3.381-.392.033-.784.049-1.127.049-.408 0-1.306.017-1.928-.049-.163.049-.179.376-.065.473l.245.05c.228.049.687.179.866.326.555.474.538.735.538 2.009v3.871c0 1.291 0 2.711-.211 3.218-.115.261-.409.327-.719.376l-.359.082c-.132.115-.098.392.032.473.572-.033 1.012-.049 1.699-.049.621 0 1.258.016 1.863.049.163-.049.179-.359.032-.473l-.359-.049c-.409-.066-.686-.163-.833-.409-.277-.49-.294-1.993-.294-3.218v-3.185c0-.866 0-1.045.049-1.045.277.245.8.865 1.861 2.058l3.823 4.361c1.176 1.339 1.65 1.895 1.911 2.238.195.016.424-.049.555-.229-.049-.376-.049-2.385-.049-2.874v-3.904c0-1.29 0-2.711.229-3.218.114-.261.39-.327.702-.376l.376-.082c.13-.114.099-.391-.033-.473-.588.032-1.012.048-1.714.048zm10.266.474l.36-.05c.115-.114.098-.408-.033-.473-.719.033-1.454.049-2.173.049-.751 0-1.486-.016-2.204-.049-.131.066-.147.36-.034.473l.36.05c.768.098.915.146.915 1.877v6.077c0 1.731-.147 1.78-.915 1.878l-.36.049c-.114.115-.097.409.034.473.718-.033 1.486-.049 2.204-.049.719 0 1.454.016 2.173.049.131-.065.147-.359.033-.473l-.36-.049c-.767-.099-.915-.148-.915-1.878v-6.077c0-1.73.148-1.779.915-1.877zm14.01-.474c-.523 0-1.078-.016-1.748-.049-.132.082-.147.343-.033.473l.473.115c.49.115.539.245.278.899-.866 2.221-1.847 4.475-2.727 6.533-.163-.376-.605-1.339-.899-2.075l-1.176-2.907c-.67-1.666-.8-2.026-.8-2.172 0-.13.13-.212.489-.294l.408-.099c.147-.114.132-.376-.016-.473-.866.033-1.421.049-2.156.049-.637 0-1.339-.016-1.976-.049-.163.049-.163.343-.049.457l.393.082c.653.131.799.359 1.258 1.454l2.858 6.876c.294.687.555 1.487.752 2.139.082.049.195.082.31.082.115 0 .245-.033.278-.082.277-.833 1.045-2.743 1.698-4.23l.915-2.025c.735-1.65 1.209-2.744 1.666-3.528.277-.473.638-.588 1.012-.67l.409-.082c.082-.13.098-.391-.032-.473-.459.033-.997.049-1.585.049zm13.126 8.362c-.572 1.323-.931 1.797-3.006 1.764-1.371 0-1.65-.131-1.845-.359-.245-.278-.277-.866-.277-1.699v-2.074c0-.409.016-.441.391-.441h.785c1.421 0 1.698.033 1.813.719l.115.654c.13.098.44.098.522-.017-.016-.522-.049-1.094-.049-1.715 0-.604.033-1.192.049-1.633-.082-.13-.393-.13-.522-.016l-.115.555c-.115.703-.392.719-1.813.719h-.785c-.375 0-.391-.016-.391-.44v-2.76c0-.931 0-.963.701-.963h1.094c.441 0 .931.033 1.307.146.522.13.767.539 1.028 1.487.131.098.457.065.522-.066-.098-.701-.195-1.992-.261-2.27-.211.033-1.16.049-2.204.049h-3.12c-.718 0-1.486-.016-2.108-.049-.13.066-.146.36-.032.473l.261.033c.767.114.915.163.915 1.894v6.077c0 1.731-.148 1.78-.915 1.861l-.604.066c-.115.115-.098.409.032.473.736-.033 1.732-.049 2.451-.049h1.862c1.911 0 3.315.016 4.034.049.229-.44.588-1.682.685-2.368-.096-.164-.373-.214-.52-.1zm13.746 1.618c-.767-.637-1.583-2.026-2.891-4.23-.066-.099-.098-.229 0-.278.8-.327 1.96-1.078 1.96-2.581 0-1.176-.605-1.943-1.438-2.385-.718-.392-1.829-.555-3.103-.555-1.339 0-2.728.049-3.757.147-.13.081-.13.343-.016.456l.424.05c.767.082.784.277.784 1.845v5.978c0 1.731-.147 1.78-.915 1.878l-.36.049c-.146.115-.098.409.034.473.752-.033 1.486-.049 2.204-.049.719 0 1.454.016 2.173.049.131-.065.147-.359.033-.473l-.36-.049c-.767-.099-.915-.148-.915-1.878v-2.09c0-.343.016-.36.506-.36.54 0 .72.066 1.013.555.393.638.85 1.536 1.291 2.222.996 1.519 1.845 2.155 3.413 2.155.572 0 .882-.049 1.078-.098.049-.082.049-.261-.033-.327-.193-.014-.667-.113-1.125-.504zm-5.357-4.623c-.784 0-.784-.032-.784-.555v-3.397c0-.751.016-.8.866-.8 1.421 0 2.254 1.127 2.254 2.417 0 1.552-.734 2.335-2.336 2.335zm14.679-.718l-1.013-.539c-1.077-.571-1.551-1.306-1.551-1.992 0-.866.538-1.715 1.846-1.715 1.388 0 1.959 1.094 2.204 1.943.147.114.441.098.523-.049 0-.767-.164-1.846-.344-2.205-.767-.146-1.387-.343-2.237-.343-2.385 0-3.593 1.372-3.593 2.988 0 1.471 1.078 2.466 2.303 3.153l.702.392c1.225.687 1.666 1.438 1.666 2.368 0 .997-.703 1.748-1.944 1.748-1.6 0-2.482-1.748-2.776-2.581-.131-.114-.409-.098-.506.065-.016 1.013.195 2.14.49 2.483.327.196 1.176.686 2.679.686 2.368 0 3.789-1.322 3.789-3.185-.001-1.649-1.177-2.662-2.238-3.217zm10.921-4.165l.36-.05c.114-.114.098-.408-.033-.473-.719.033-1.454.049-2.173.049-.751 0-1.486-.016-2.205-.049-.13.066-.146.36-.032.473l.359.05c.767.098.915.146.915 1.877v6.077c0 1.731-.147 1.78-.915 1.878l-.359.049c-.115.115-.099.409.032.473.72-.033 1.487-.049 2.205-.049.719 0 1.454.016 2.173.049.13-.065.146-.359.033-.473l-.36-.049c-.767-.099-.914-.148-.914-1.878v-6.077c0-1.73.147-1.779.914-1.877zm15.039-.964l-.196.066c-.195.376-.44.424-1.241.424h-6.663c-1.112 0-1.339-.016-1.421-.424-.034-.049-.099-.066-.163-.066-.082 0-.148.017-.18.066-.115.572-.36 1.584-.637 2.466.066.163.409.212.522.115.604-1.323 1.046-1.503 2.549-1.503h.914c.426 0 .442.033.442.718v7.056c0 1.731-.147 1.78-.915 1.845l-.686.082c-.116.082-.099.409.032.473 1.045-.033 1.814-.049 2.532-.049s1.454.016 2.4.049c.132-.065.147-.359.033-.473l-.588-.066c-.769-.082-.915-.131-.915-1.861v-7.056c0-.686.017-.718.441-.718h.931c1.748 0 2.058.31 2.27 1.584.148.113.425.082.507-.049-.049-.523.082-1.928.245-2.598-.033-.048-.115-.081-.213-.081zm14.055.441c-.522.033-1.044.049-1.551.049-.49 0-.996-.016-1.716-.049-.164.082-.164.36-.048.473l.489.115c.228.033.376.082.376.245 0 .179-.164.539-.441 1.094-.638 1.225-1.242 2.369-1.911 3.609-.654-1.192-1.242-2.515-1.896-3.919-.228-.539-.293-.719-.293-.85s.082-.179.343-.212l.49-.082c.13-.114.097-.408-.034-.473-.375.033-1.371.049-2.091.049-.669 0-1.355-.016-2.057-.049-.132.049-.163.36-.066.473l.425.099c.736.147.865.343 1.226 1.045l1.959 3.87c.457.866.522 1.111.522 2.026v.964c0 1.731-.147 1.78-.914 1.861l-.523.066c-.114.115-.098.409.033.473.882-.033 1.617-.049 2.369-.049.718 0 1.453.016 2.465.049.131-.065.147-.359.034-.473l-.622-.066c-.799-.082-.947-.131-.947-1.861v-.98c0-1.11.114-1.453.604-2.303.506-.915.996-1.812 1.553-2.743.849-1.438 1.044-1.748 1.78-1.878l.474-.099c.116-.131.116-.392-.032-.474z" fill="#000"/><path d="M141.277 2.504h.825v50.616h-.825z" fill="#000"/></g></svg>